<?xml version="1.0" encoding="iso-8859-1"?>
<!-- Generator: Adobe Illustrator 17.1.0, SVG Export Plug-In . SVG Version: 6.00 Build 0)  -->
<!DOCTYPE svg PUBLIC "-//W3C//DTD SVG 1.1//EN" "http://www.w3.org/Graphics/SVG/1.1/DTD/svg11.dtd">
<svg version="1.1" id="Capa_1" fill="rgb(130,155,133)" xmlns="http://www.w3.org/2000/svg" xmlns:xlink="http://www.w3.org/1999/xlink" x="0px" y="0px"
	 viewBox="0 0 207.125 207.125" style="enable-background:new 0 0 207.125 207.125;" xml:space="preserve">
<path d="M103.562,207.125c-0.676,0-1.352-0.137-1.985-0.411c-3.001-1.298-73.499-32.342-73.499-80.594V5c0-2.762,2.239-5,5-5
	h140.968c2.761,0,5,2.238,5,5v121.12c0,48.252-70.499,79.296-73.5,80.594C104.914,206.988,104.238,207.125,103.562,207.125z
	 M38.078,10v116.12c0,37.595,54.32,65.225,65.484,70.503c11.163-5.278,65.484-32.908,65.484-70.503V10H38.078z M103.562,153.269
	c-2.761,0-5-2.238-5-5v-5.341c-14.261-1.628-25.376-13.771-25.376-28.461c0-2.762,2.239-5,5-5s5,2.238,5,5
	c0,9.167,6.648,16.81,15.376,18.359v-37.17c-14.246-1.532-25.376-13.629-25.376-28.275s11.13-26.743,25.376-28.275v-5.319
	c0-2.762,2.239-5,5-5s5,2.238,5,5v5.341c14.261,1.628,25.377,13.771,25.377,28.461v1.316c0,2.762-2.239,5-5,5s-5-2.238-5-5v-1.316
	c0-9.167-6.649-16.81-15.377-18.359v36.756c14.247,1.532,25.377,13.628,25.377,28.274v0.415c0,14.646-11.13,26.743-25.377,28.275
	v5.319C108.562,151.03,106.323,153.269,103.562,153.269z M108.562,96.074v36.785c8.715-1.464,15.377-9.062,15.377-18.186v-0.415
	C123.939,105.135,117.277,97.537,108.562,96.074z M98.562,49.195c-8.715,1.464-15.376,9.062-15.376,18.186
	s6.662,16.722,15.376,18.186V49.195z"/>
<g>
</g>
<g>
</g>
<g>
</g>
<g>
</g>
<g>
</g>
<g>
</g>
<g>
</g>
<g>
</g>
<g>
</g>
<g>
</g>
<g>
</g>
<g>
</g>
<g>
</g>
<g>
</g>
<g>
</g>
</svg>
