<?xml version="1.0" encoding="iso-8859-1"?>
<!-- Generator: Adobe Illustrator 19.0.0, SVG Export Plug-In . SVG Version: 6.00 Build 0)  -->
<svg version="1.1" id="Layer_1" fill="rgb(130,155,133)" xmlns="http://www.w3.org/2000/svg" xmlns:xlink="http://www.w3.org/1999/xlink" x="0px" y="0px"
	 viewBox="0 0 511.999 511.999" style="enable-background:new 0 0 511.999 511.999;" xml:space="preserve">
<g>
	<g>
		<path d="M491.869,477.693c-21.516-2.586-41.805-12.45-57.129-27.774c-3.128-3.128-7.369-4.885-11.793-4.885
			s-8.664,1.758-11.792,4.885c-8.266,8.266-17.888,14.735-28.272,19.418l55.541-146.562c3.221-8.501-0.96-18.018-9.401-21.394
			l-22.649-9.059v-75.519c0-21.686-13.934-40.187-33.354-47.113v-52.95c0-27.587-22.544-50.031-50.254-50.031h-16.455V50.031
			C306.312,22.444,283.768,0,256.059,0c-27.465,0-49.809,22.444-49.809,50.031v16.677H189.35c-27.465,0-49.809,22.444-49.809,50.031
			v52.85c-19.401,6.843-33.354,25.417-33.354,47.213v75.34l-23.093,9.237c-8.399,3.36-12.588,12.802-9.443,21.283l54.088,145.846
			c-9.718-4.609-18.738-10.789-26.541-18.592c-6.512-6.513-17.072-6.513-23.585,0c-15.403,15.403-35.8,25.28-57.433,27.811
			c-9.148,1.071-15.696,9.355-14.626,18.503s9.358,15.704,18.503,14.626c23.84-2.789,46.562-12.221,65.38-26.945
			c48.152,37.299,118.504,37.323,166.699,0.006c49.062,38.457,119.69,36.416,166.775-0.01c18.708,14.638,41.29,24.053,64.977,26.9
			c9.137,1.101,17.45-5.421,18.548-14.566C507.536,487.097,501.014,478.793,491.869,477.693z M239.604,50.031
			c0-9.196,7.381-16.677,16.455-16.677c9.318,0,16.899,7.481,16.899,16.677v16.677h-33.354V50.031z M172.895,116.74
			c0-9.196,7.381-16.677,16.455-16.677c14.276,0,119.071,0,133.417,0c9.318,0,16.899,7.481,16.899,16.677v50.031H172.895V116.74z
			 M139.541,216.802c0-9.196,7.381-16.677,16.455-16.677h0.222h199.903c9.318,0,16.899,7.481,16.899,16.677v62.178l-110.456-44.182
			c-3.866-1.67-8.405-1.842-12.961-0.021c-0.017,0.008-0.034,0.013-0.051,0.021l-110.011,44.004V216.802z M267.969,449.918
			c-6.512-6.513-17.072-6.513-23.585,0c-20.482,20.481-49.259,29.946-77.423,28.43l-56.384-152.037l128.804-51.521v86.978
			c0,9.21,7.467,16.677,16.677,16.677c9.21,0,16.677-7.467,16.677-16.677V274.79l108.631,43.453c1.356,0.785,2.833,1.38,4.396,1.759
			l15.669,6.267L343.77,478.426C316.127,479.499,288.057,470.006,267.969,449.918z"/>
	</g>
</g>
<g>
</g>
<g>
</g>
<g>
</g>
<g>
</g>
<g>
</g>
<g>
</g>
<g>
</g>
<g>
</g>
<g>
</g>
<g>
</g>
<g>
</g>
<g>
</g>
<g>
</g>
<g>
</g>
<g>
</g>
</svg>
